{"title":"Rush Hour 1 in hindi by Shahz-Mk","uid":5687288,"size":1084754570,"categoryP":"other","categoryS":"other","magnet":"?xt=urn:btih:34aeb98010be6ec3ce88674321f31eea705eb15c&amp;dn=Rush+Hour+1+in+hindi+by+Shahz-Mk&amp;tr=udp%3A%2F%2Ftracker.openbittorrent.com%3A80&amp;tr=udp%3A%2F%2Fopen.demonii.com%3A1337&amp;tr=udp%3A%2F%2Ftracker.coppersurfer.tk%3A6969&amp;tr=udp%3A%2F%2Fexodus.desync.com%3A6969","seeders":0,"leechers":1,"uploader":null,"files":2,"time":1278959354,"description":"Video Source :- English High Definition\nAudio Source :- Hindi Dvd\nRipper :- Shahz-Mk\n\n\nComplete name :-  RUSH.HOUR.1.1998.HDRIP.720p[Shahz-Mk].mkv\nFormat                           : Matroska\nFile size                        : 1 024 MiB\nDuration                         : 1h 37mn\nOverall bit rate                 : 1 474 Kbps\n\nVideo\nID                               : 1\nFormat                           : AVC\nFormat/Info                      : Advanced Video Codec\nFormat profile                   : &lt;a class=&quot;__cf_email__&quot; href=&quot;/cdn-cgi/l/email-protection&quot; data-cfemail=&quot;246c4d434c6468170a15&quot;&gt;[email&amp;#160;protected]&lt;/a&gt;&lt;script cf-hash='f9e31' type=&quot;text/javascript&quot;&gt;\n/* &lt;![CDATA[ */!function(){try{var t=&quot;currentScript&quot;in document?document.currentScript:function(){for(var t=document.getElementsByTagName(&quot;script&quot;),e=t.length;e--;)if(t[e].getAttribute(&quot;cf-hash&quot;))return t[e]}();if(t&amp;&amp;t.previousSibling){var e,r,n,i,c=t.previousSibling,a=c.getAttribute(&quot;data-cfemail&quot;);if(a){for(e=&quot;&quot;,r=parseInt(a.substr(0,2),16),n=2;a.length-n;n+=2)i=parseInt(a.substr(n,2),16)^r,e+=String.fromCharCode(i);e=document.createTextNode(e),c.parentNode.replaceChild(e,c)}}}catch(u){}}();/* ]]&gt; */&lt;/script&gt;\nFormat settings, CABAC           : Yes\nFormat settings, ReFrames        : 10 frames\nCodec ID                         : V_MPEG4/ISO/AVC\nDuration                         : 1h 37mn\nBit rate                         : 1 348 Kbps\nWidth                            : 720 pixels\nHeight                           : 408 pixels\nDisplay aspect ratio             : 2.35:1\nOriginal display aspect ratio    : 16:9\nFrame rate                       : 23.976 fps\nResolution                       : 8 bits\nColorimetry                      : 4:2:0\nScan type                        : Progressive\nBits/(Pixel*Frame)               : 0.191\nStream size                      : 936 MiB (91%)\nLanguage                         : English\n\nAudio\nID                               : 2\nFormat                           : MPEG Audio\nFormat version                   : Version 1\nFormat profile                   : Layer 3\nMode                             : Joint stereo\nFormat_Settings_ModeExtension    : MS Stereo\nCodec ID                         : A_MPEG/L3\nCodec ID/Hint                    : MP3\nDuration                         : 1h 37mn\nBit rate mode                    : Constant\nBit rate                         : 96.0 Kbps\nChannel(s)                       : 2 channels\nSampling rate                    : 32.0 KHz\nVideo delay                      : 1s 700ms\nStream size                      : 66.7 MiB (7%)\nWriting library                  : LAME3.98.2","torrent":{"xt":"urn:btih:34aeb98010be6ec3ce88674321f31eea705eb15c","amp;dn":"Rush+Hour+1+in+hindi+by+Shahz-Mk","amp;tr":["udp%3A%2F%2Ftracker.openbittorrent.com%3A80","udp%3A%2F%2Fopen.demonii.com%3A1337","udp%3A%2F%2Ftracker.coppersurfer.tk%3A6969","udp%3A%2F%2Fexodus.desync.com%3A6969"],"infoHash":"34aeb98010be6ec3ce88674321f31eea705eb15c","infoHashBuffer":{"type":"Buffer","data":[52,174,185,128,16,190,110,195,206,136,103,67,33,243,30,234,112,94,177,92]},"announce":[],"urlList":[]}}